<svg id="Layer_1" data-name="Layer 1" xmlns="http://www.w3.org/2000/svg" viewBox="0 0 44.25 60.25"><defs><style>.cls-1{fill:none;}.cls-1,.cls-2{stroke:#000;stroke-miterlimit:10;stroke-width:0.25px;}.cls-2{fill:#fff;}</style></defs><path class="cls-1" d="M22,6" transform="translate(-7.87 0.13)"/><path class="cls-1" d="M8,2" transform="translate(-7.87 0.13)"/><rect class="cls-1" x="0.13" y="0.13" width="44" height="60" rx="3.36"/><path class="cls-2" d="M38,2.6V4.2A.92.92,0,0,1,37,5H23a.92.92,0,0,1-1-.8V2.6h5V1h6V2.6Z" transform="translate(-7.87 0.13)"/><path class="cls-1" d="M49,3V57H11V3H22V4a1,1,0,0,0,1,1H37a1,1,0,0,0,1-1V3Z" transform="translate(-7.87 0.13)"/><rect class="cls-1" x="8.13" y="10.13" width="4" height="4"/><rect class="cls-1" x="8.13" y="27.13" width="4" height="4"/><rect class="cls-1" x="8.13" y="19.13" width="4" height="4"/><rect class="cls-1" x="8.13" y="35.13" width="4" height="4"/><rect class="cls-1" x="8.13" y="43.13" width="4" height="4"/><path class="cls-1" d="M23,13a3.57,3.57,0,0,1,1-1c1.89-1.24,4.51-.19,5,0,1.3.52,1.15.87,2,1,1.72.27,2.28-1.15,4-1,1.49.13,1.8,1.25,3,1,1-.2,1.1-1,2-1s1.06.61,2,1a4.31,4.31,0,0,0,3,0" transform="translate(-7.87 0.13)"/><path class="cls-1" d="M22.86,21.59a3.45,3.45,0,0,1,1-1c1.89-1.24,4.51-.2,5,0,1.29.52,1.14.87,2,1,1.72.27,2.27-1.15,4-1,1.49.13,1.79,1.25,3,1,1-.2,1.1-1,2-1s1.06.61,2,1a4.31,4.31,0,0,0,3,0" transform="translate(-7.87 0.13)"/><path class="cls-1" d="M22.86,29.59a3.45,3.45,0,0,1,1-1c1.89-1.24,4.51-.2,5,0,1.29.52,1.14.87,2,1,1.72.27,2.27-1.15,4-1,1.49.13,1.79,1.25,3,1,1-.2,1.1-1,2-1s1.06.61,2,1a4.31,4.31,0,0,0,3,0" transform="translate(-7.87 0.13)"/><path class="cls-1" d="M22.86,37.59a3.45,3.45,0,0,1,1-1c1.89-1.24,4.51-.2,5,0,1.29.52,1.14.87,2,1,1.72.27,2.27-1.15,4-1,1.49.13,1.79,1.25,3,1,1-.2,1.1-1,2-1s1.06.61,2,1a4.31,4.31,0,0,0,3,0" transform="translate(-7.87 0.13)"/><path class="cls-1" d="M22.86,45.59a3.45,3.45,0,0,1,1-1c1.89-1.24,4.51-.2,5,0,1.29.52,1.14.87,2,1,1.72.27,2.27-1.15,4-1,1.49.13,1.79,1.25,3,1,1-.2,1.1-1,2-1s1.06.61,2,1a4.31,4.31,0,0,0,3,0" transform="translate(-7.87 0.13)"/></svg>