<svg id="Layer_1" data-name="Layer 1" xmlns="http://www.w3.org/2000/svg" viewBox="0 0 34 60"><defs><style>.cls-1,.cls-2{fill:none;stroke:#000;stroke-miterlimit:10;}.cls-1{stroke-linecap:round;stroke-width:2px;}.cls-2{stroke-width:0.25px;}</style></defs><path d="M37.12,2A7.9,7.9,0,0,1,45,9.88V50.12A7.9,7.9,0,0,1,37.12,58H22.88A7.9,7.9,0,0,1,15,50.12V9.88A7.9,7.9,0,0,1,22.88,2H37.12m0-2H22.88A9.91,9.91,0,0,0,13,9.88V50.12A9.91,9.91,0,0,0,22.88,60H37.12A9.91,9.91,0,0,0,47,50.12V9.88A9.91,9.91,0,0,0,37.12,0Z" transform="translate(-13)"/><line class="cls-1" x1="13" y1="4" x2="19" y2="4"/><circle class="cls-1" cx="22" cy="4"/><path class="cls-2" d="M22,6" transform="translate(-13)"/><path d="M38.75,2.25V4A1.76,1.76,0,0,1,37,5.75H23A1.76,1.76,0,0,1,21.25,4V2.25h17.5M39,2H21V4a2,2,0,0,0,2,2H37a2,2,0,0,0,2-2V2Z" transform="translate(-13)"/></svg>