<svg id="Layer_1" data-name="Layer 1" xmlns="http://www.w3.org/2000/svg" viewBox="0 0 43.25 58.13"><defs><style>.cls-1{fill:none;stroke:#000;stroke-miterlimit:10;stroke-width:0.25px;}</style></defs><circle class="cls-1" cx="22.63" cy="12.63" r="12.5"/><path class="cls-1" d="M14,44a24,24,0,0,0,7,1,24.51,24.51,0,0,0,7-1" transform="translate(-7.88 -1.88)"/><path class="cls-1" d="M32,44.14a24,24,0,0,0,7,1,24.51,24.51,0,0,0,7-1" transform="translate(-7.88 -1.88)"/><line class="cls-1" x1="22.13" y1="36.13" x2="22.13" y2="41.13"/><line class="cls-1" x1="9.13" y1="32.13" x2="20.13" y2="35.13"/><line class="cls-1" x1="24.13" y1="35.13" x2="35.13" y2="32.13"/><circle class="cls-1" cx="10.13" cy="41.12"/><circle cx="10.63" cy="41.63" r="0.5"/><circle cx="32.63" cy="41.63" r="0.5"/><path class="cls-1" d="M25,50a5.91,5.91,0,0,1-5,5" transform="translate(-7.88 -1.88)"/><path class="cls-1" d="M40,55a5.88,5.88,0,0,1-5-5" transform="translate(-7.88 -1.88)"/><path class="cls-1" d="M22,17a8.11,8.11,0,0,1,2.67,2A5.49,5.49,0,0,1,26,22" transform="translate(-7.88 -1.88)"/><path class="cls-1" d="M35,22a7.29,7.29,0,0,1,1-2.94,7.67,7.67,0,0,1,2.53-2.48" transform="translate(-7.88 -1.88)"/><path class="cls-1" d="M8,60V36.54a3.69,3.69,0,0,1,2.37-3.45L20,29.38a3.67,3.67,0,0,1,2.05-.17l8.14,1.63a3.85,3.85,0,0,0,1.62,0L38,29.26a3.7,3.7,0,0,1,2.06.08l8.45,2.82A3.69,3.69,0,0,1,51,35.66V60" transform="translate(-7.88 -1.88)"/></svg>