<?xml version="1.0" encoding="utf-8"?>
<!-- Generator: Adobe Illustrator 24.3.0, SVG Export Plug-In . SVG Version: 6.00 Build 0)  -->
<svg version="1.1" id="Layer_1" xmlns="http://www.w3.org/2000/svg" xmlns:xlink="http://www.w3.org/1999/xlink" x="0px" y="0px"
	 viewBox="0 0 200 200" style="enable-background:new 0 0 200 200;" xml:space="preserve">
<style type="text/css">
	.st0{fill:url(#SVGID_1_);}
	.st1{fill:url(#SVGID_2_);}
</style>
<g>
	<linearGradient id="SVGID_1_" gradientUnits="userSpaceOnUse" x1="8.6963" y1="92.7516" x2="40.9181" y2="92.7516">
		<stop  offset="0" style="stop-color:#9BD383"/>
		<stop  offset="0.133" style="stop-color:#95CF7F"/>
		<stop  offset="0.3153" style="stop-color:#83C272"/>
		<stop  offset="0.5261" style="stop-color:#66AE5E"/>
		<stop  offset="0.7584" style="stop-color:#3E9343"/>
		<stop  offset="1" style="stop-color:#0C7020"/>
	</linearGradient>
	<path class="st0" d="M37.25,80.9h3c0.37,0,0.67,0.3,0.67,0.67v1.34c0,0.37-0.3,0.67-0.67,0.67h-1.76c-0.37,0-0.67,0.3-0.67,0.67
		v17.02c0,0.37,0.3,0.67,0.67,0.67h1.76c0.37,0,0.67,0.3,0.67,0.67v1.34c0,0.37-0.3,0.67-0.67,0.67h-7.27
		c-0.37,0-0.67-0.3-0.67-0.67v-1.34c0-0.37,0.3-0.67,0.67-0.67h1.23c0.37,0,0.67-0.3,0.67-0.67V88.69c0.02-0.18,0.04-0.36,0.05-0.54
		c0.01-0.18,0.03-0.36,0.05-0.54c-0.19,0.25-0.38,0.51-0.57,0.78c-0.19,0.27-0.38,0.53-0.57,0.78c-1.42,1.92-2.91,3.8-4.47,5.64
		c-1.38,1.63-2.73,3.27-4.06,4.93c-0.27,0.33-0.77,0.33-1.03,0l-9-11.21l-0.64-0.91c0.02,0.18,0.04,0.36,0.05,0.54
		c0.01,0.18,0.03,0.36,0.05,0.54v12.58c0,0.37,0.3,0.67,0.67,0.67h1.23c0.37,0,0.67,0.3,0.67,0.67v1.34c0,0.37-0.3,0.67-0.67,0.67
		H9.36c-0.37,0-0.67-0.3-0.67-0.67v-1.34c0-0.37,0.3-0.67,0.67-0.67h1.76c0.37,0,0.67-0.3,0.67-0.67V84.24
		c0-0.37-0.3-0.67-0.67-0.67H9.36c-0.37,0-0.67-0.3-0.67-0.67v-1.34c0-0.37,0.3-0.67,0.67-0.67h3c0.2,0,0.39,0.09,0.52,0.25
		c1.97,2.42,3.92,4.84,5.85,7.26c1.83,2.28,3.67,4.57,5.53,6.86c0.27,0.33,0.77,0.33,1.04,0c1.87-2.29,3.72-4.58,5.55-6.86
		c1.94-2.41,3.9-4.83,5.87-7.26C36.86,80.99,37.05,80.9,37.25,80.9z"/>
	<path d="M46.55,102.73h1.39V89.88h-1.39v-1.53c0-0.19,0.16-0.35,0.35-0.35h11.43c0.19,0,0.35,0.16,0.35,0.35v2.96
		c0,0.19-0.16,0.35-0.35,0.35h-1.27c-0.19,0-0.35-0.16-0.35-0.35v-1.08c0-0.19-0.16-0.35-0.35-0.35h-6c-0.19,0-0.35,0.16-0.35,0.35
		v4.73c0,0.19,0.16,0.35,0.35,0.35h7c0.19,0,0.35,0.16,0.35,0.35v1.18c0,0.19-0.16,0.35-0.35,0.35h-7c-0.19,0-0.35,0.16-0.35,0.35
		v4.85c0,0.19,0.16,0.35,0.35,0.35h6.35c0.19,0,0.35-0.16,0.35-0.35v-1.08c0-0.19,0.16-0.35,0.35-0.35h1.27
		c0.19,0,0.35,0.16,0.35,0.35v2.96c0,0.19-0.16,0.35-0.35,0.35H46.9c-0.19,0-0.35-0.16-0.35-0.35V102.73z"/>
	<path d="M63.65,102.73h1.42c0.15,0,0.28-0.09,0.34-0.22c1.11-2.53,2.23-5.04,3.35-7.52c1.04-2.3,2.08-4.63,3.11-6.98
		c0.13-0.29,0.54-0.29,0.67,0c1.03,2.35,2.07,4.67,3.11,6.98c1.12,2.48,2.24,4.99,3.35,7.52c0.06,0.13,0.19,0.22,0.34,0.22h1.45
		c0.2,0,0.37,0.16,0.37,0.37v1.14c0,0.2-0.16,0.37-0.37,0.37h-4.76c-0.2,0-0.37-0.16-0.37-0.37v-1.5h1.38
		c-0.35-0.79-0.7-1.57-1.04-2.35c-0.31-0.7-0.62-1.41-0.94-2.13c-0.06-0.13-0.19-0.22-0.34-0.22h-5.01c-0.15,0-0.28,0.09-0.34,0.22
		l-1.99,4.48h1.06c0.2,0,0.37,0.16,0.37,0.37v1.14c0,0.2-0.16,0.37-0.37,0.37h-4.79c-0.2,0-0.37-0.16-0.37-0.37v-1.14
		C63.28,102.9,63.45,102.73,63.65,102.73z M72.44,92.4l-0.25-0.78c-0.02,0.03-0.03,0.09-0.05,0.17c-0.02,0.08-0.04,0.17-0.08,0.26
		c-0.03,0.11-0.07,0.23-0.12,0.36c-0.22,0.46-0.42,0.91-0.6,1.35c-0.17,0.38-0.34,0.79-0.52,1.23c-0.18,0.44-0.35,0.84-0.5,1.19
		h3.23c0.27,0,0.44-0.27,0.34-0.52L72.44,92.4z"/>
	<path d="M85.37,102.73h1.39V89.88h-1.39v-1.5c0-0.2,0.17-0.37,0.37-0.37h4.79c0.2,0,0.37,0.17,0.37,0.37v1.13
		c0,0.2-0.17,0.37-0.37,0.37H89.2c-0.2,0-0.37,0.17-0.37,0.37v12.11c0,0.2,0.17,0.37,0.37,0.37h6.31c0.2,0,0.37-0.17,0.37-0.37
		v-1.04c0-0.2,0.17-0.37,0.37-0.37h1.23c0.2,0,0.37,0.17,0.37,0.37v2.91c0,0.2-0.17,0.37-0.37,0.37H85.74
		c-0.2,0-0.37-0.17-0.37-0.37V102.73z"/>
	<linearGradient id="SVGID_2_" gradientUnits="userSpaceOnUse" x1="116.7068" y1="92.7516" x2="148.9281" y2="92.7516">
		<stop  offset="0" style="stop-color:#0C7020"/>
		<stop  offset="1" style="stop-color:#9BD383"/>
	</linearGradient>
	<path class="st1" d="M145.3,80.9h2.9c0.41,0,0.74,0.33,0.74,0.74v1.21c0,0.41-0.33,0.74-0.74,0.74h-1.62
		c-0.41,0-0.74,0.33-0.74,0.74v16.89c0,0.41,0.33,0.74,0.74,0.74h1.62c0.41,0,0.74,0.33,0.74,0.74v1.21c0,0.41-0.33,0.74-0.74,0.74
		h-7.14c-0.41,0-0.74-0.33-0.74-0.74v-1.21c0-0.41,0.33-0.74,0.74-0.74h1.09c0.41,0,0.74-0.33,0.74-0.74V88.69
		c0.02-0.18,0.04-0.36,0.05-0.54c0.01-0.18,0.03-0.36,0.05-0.54c-0.19,0.25-0.38,0.51-0.57,0.78s-0.38,0.53-0.57,0.78
		c-1.43,1.92-2.92,3.8-4.47,5.64c-1.36,1.61-2.7,3.23-4.01,4.86c-0.29,0.37-0.85,0.37-1.14,0l-8.95-11.14l-0.64-0.91
		c0.02,0.18,0.04,0.36,0.05,0.54c0.01,0.18,0.03,0.36,0.05,0.54v12.51c0,0.41,0.33,0.74,0.74,0.74h1.09c0.41,0,0.74,0.33,0.74,0.74
		v1.21c0,0.41-0.33,0.74-0.74,0.74h-7.14c-0.41,0-0.74-0.33-0.74-0.74v-1.21c0-0.41,0.33-0.74,0.74-0.74h1.62
		c0.41,0,0.74-0.33,0.74-0.74V84.31c0-0.41-0.33-0.74-0.74-0.74h-1.62c-0.41,0-0.74-0.33-0.74-0.74v-1.21
		c0-0.41,0.33-0.74,0.74-0.74h2.9c0.22,0,0.43,0.1,0.57,0.27c1.96,2.42,3.91,4.83,5.83,7.23c1.81,2.26,3.64,4.53,5.48,6.8
		c0.29,0.36,0.85,0.36,1.15,0c1.85-2.27,3.68-4.54,5.5-6.8c1.93-2.4,3.88-4.82,5.85-7.23C144.86,81,145.07,80.9,145.3,80.9z"/>
	<path d="M155.12,102.73h0.86c0.3,0,0.55-0.25,0.55-0.55V90.43c0-0.3-0.25-0.55-0.55-0.55h-0.86c-0.3,0-0.55-0.25-0.55-0.55v-0.77
		c0-0.3,0.25-0.55,0.55-0.55h4.92c0.3,0,0.55,0.25,0.55,0.55v0.77c0,0.3-0.25,0.55-0.55,0.55h-0.89c-0.3,0-0.55,0.25-0.55,0.55
		v11.75c0,0.3,0.25,0.55,0.55,0.55h0.89c0.3,0,0.55,0.25,0.55,0.55v0.77c0,0.3-0.25,0.55-0.55,0.55h-4.92
		c-0.3,0-0.55-0.25-0.55-0.55v-0.77C154.57,102.98,154.81,102.73,155.12,102.73z"/>
	<path d="M164.82,102.73h1.39V89.88h-1.39v-1.6c0-0.15,0.12-0.27,0.27-0.27h4.98c0.15,0,0.27,0.12,0.27,0.27v1.33
		c0,0.15-0.12,0.27-0.27,0.27h-1.52c-0.15,0-0.27,0.12-0.27,0.27v12.31c0,0.15,0.12,0.27,0.27,0.27h6.5c0.15,0,0.27-0.12,0.27-0.27
		v-1.23c0-0.15,0.12-0.27,0.27-0.27h1.42c0.15,0,0.27,0.12,0.27,0.27v3.11c0,0.15-0.12,0.27-0.27,0.27h-11.93
		c-0.15,0-0.27-0.12-0.27-0.27V102.73z"/>
	<path d="M181.53,102.73h1.39V89.88h-1.39v-1.62c0-0.14,0.11-0.25,0.25-0.25h5.02c0.14,0,0.25,0.11,0.25,0.25v1.37
		c0,0.14-0.11,0.25-0.25,0.25h-1.56c-0.14,0-0.25,0.11-0.25,0.25v12.35c0,0.14,0.11,0.25,0.25,0.25h6.54c0.14,0,0.25-0.11,0.25-0.25
		v-1.28c0-0.14,0.11-0.25,0.25-0.25h1.46c0.14,0,0.25,0.11,0.25,0.25v3.15c0,0.14-0.11,0.25-0.25,0.25h-11.97
		c-0.14,0-0.25-0.11-0.25-0.25V102.73z"/>
</g>
</svg>
