<?xml version="1.0" encoding="utf-8"?>
<!-- Generator: Adobe Illustrator 24.3.0, SVG Export Plug-In . SVG Version: 6.00 Build 0)  -->
<svg version="1.1" id="Layer_1" xmlns="http://www.w3.org/2000/svg" xmlns:xlink="http://www.w3.org/1999/xlink" x="0px" y="0px"
	 viewBox="0 0 200 200" style="enable-background:new 0 0 200 200;" xml:space="preserve">
<style type="text/css">
	.st0{fill:#FFFFFF;stroke:#FFFFFF;stroke-miterlimit:10;}
</style>
<g>
	<path class="st0" d="M36.21,87.97h3c0.37,0,0.67,0.3,0.67,0.67v1.34c0,0.37-0.3,0.67-0.67,0.67h-1.76c-0.37,0-0.67,0.3-0.67,0.67
		v17.02c0,0.37,0.3,0.67,0.67,0.67h1.76c0.37,0,0.67,0.3,0.67,0.67v1.34c0,0.37-0.3,0.67-0.67,0.67h-7.27
		c-0.37,0-0.67-0.3-0.67-0.67v-1.34c0-0.37,0.3-0.67,0.67-0.67h1.23c0.37,0,0.67-0.3,0.67-0.67V95.76c0.02-0.18,0.04-0.36,0.05-0.54
		c0.01-0.18,0.03-0.36,0.05-0.54c-0.19,0.25-0.38,0.51-0.57,0.78c-0.19,0.27-0.38,0.53-0.57,0.78c-1.42,1.92-2.91,3.8-4.47,5.64
		c-1.38,1.63-2.73,3.27-4.06,4.93c-0.27,0.33-0.77,0.33-1.03,0l-9-11.21l-0.64-0.91c0.02,0.18,0.04,0.36,0.05,0.54
		c0.01,0.18,0.03,0.36,0.05,0.54v12.58c0,0.37,0.3,0.67,0.67,0.67h1.23c0.37,0,0.67,0.3,0.67,0.67v1.34c0,0.37-0.3,0.67-0.67,0.67
		H8.32c-0.37,0-0.67-0.3-0.67-0.67v-1.34c0-0.37,0.3-0.67,0.67-0.67h1.76c0.37,0,0.67-0.3,0.67-0.67V91.31
		c0-0.37-0.3-0.67-0.67-0.67H8.32c-0.37,0-0.67-0.3-0.67-0.67v-1.34c0-0.37,0.3-0.67,0.67-0.67h3c0.2,0,0.39,0.09,0.52,0.25
		c1.97,2.42,3.92,4.84,5.85,7.26c1.83,2.28,3.67,4.57,5.53,6.86c0.27,0.33,0.77,0.33,1.04,0c1.87-2.29,3.72-4.58,5.55-6.86
		c1.94-2.41,3.9-4.83,5.87-7.26C35.82,88.06,36.01,87.97,36.21,87.97z"/>
	<path class="st0" d="M45.51,109.81h1.39V96.96h-1.39v-1.53c0-0.19,0.16-0.35,0.35-0.35h11.43c0.19,0,0.35,0.16,0.35,0.35v2.96
		c0,0.19-0.16,0.35-0.35,0.35h-1.27c-0.19,0-0.35-0.16-0.35-0.35V97.3c0-0.19-0.16-0.35-0.35-0.35h-6c-0.19,0-0.35,0.16-0.35,0.35
		v4.73c0,0.19,0.16,0.35,0.35,0.35h7c0.19,0,0.35,0.16,0.35,0.35v1.18c0,0.19-0.16,0.35-0.35,0.35h-7c-0.19,0-0.35,0.16-0.35,0.35
		v4.85c0,0.19,0.16,0.35,0.35,0.35h6.35c0.19,0,0.35-0.16,0.35-0.35v-1.08c0-0.19,0.16-0.35,0.35-0.35h1.27
		c0.19,0,0.35,0.16,0.35,0.35v2.96c0,0.19-0.16,0.35-0.35,0.35H45.86c-0.19,0-0.35-0.16-0.35-0.35V109.81z"/>
	<path class="st0" d="M62.61,109.81h1.42c0.15,0,0.28-0.09,0.34-0.22c1.11-2.53,2.23-5.04,3.35-7.52c1.04-2.3,2.08-4.63,3.11-6.98
		c0.13-0.29,0.54-0.29,0.67,0c1.03,2.35,2.07,4.67,3.11,6.98c1.12,2.48,2.24,4.99,3.35,7.52c0.06,0.13,0.19,0.22,0.34,0.22h1.45
		c0.2,0,0.37,0.16,0.37,0.37v1.14c0,0.2-0.16,0.37-0.37,0.37h-4.76c-0.2,0-0.37-0.16-0.37-0.37v-1.5H76
		c-0.35-0.79-0.7-1.57-1.04-2.35c-0.31-0.7-0.62-1.41-0.94-2.13c-0.06-0.13-0.19-0.22-0.34-0.22h-5.01c-0.15,0-0.28,0.09-0.34,0.22
		l-1.99,4.48h1.06c0.2,0,0.37,0.16,0.37,0.37v1.14c0,0.2-0.16,0.37-0.37,0.37h-4.79c-0.2,0-0.37-0.16-0.37-0.37v-1.14
		C62.24,109.97,62.41,109.81,62.61,109.81z M71.39,99.47l-0.25-0.78c-0.02,0.03-0.03,0.09-0.05,0.17c-0.02,0.08-0.04,0.17-0.08,0.26
		c-0.03,0.11-0.07,0.23-0.12,0.36c-0.22,0.46-0.42,0.91-0.6,1.35c-0.17,0.38-0.34,0.79-0.52,1.23c-0.18,0.44-0.35,0.84-0.5,1.19
		h3.23c0.27,0,0.44-0.27,0.34-0.52L71.39,99.47z"/>
	<path class="st0" d="M84.33,109.81h1.39V96.96h-1.39v-1.5c0-0.2,0.17-0.37,0.37-0.37h4.79c0.2,0,0.37,0.17,0.37,0.37v1.13
		c0,0.2-0.17,0.37-0.37,0.37h-1.33c-0.2,0-0.37,0.17-0.37,0.37v12.11c0,0.2,0.17,0.37,0.37,0.37h6.31c0.2,0,0.37-0.17,0.37-0.37
		v-1.04c0-0.2,0.17-0.37,0.37-0.37h1.23c0.2,0,0.37,0.17,0.37,0.37v2.91c0,0.2-0.17,0.37-0.37,0.37H84.7c-0.2,0-0.37-0.17-0.37-0.37
		V109.81z"/>
	<path class="st0" d="M144.26,87.97h2.9c0.41,0,0.74,0.33,0.74,0.74v1.21c0,0.41-0.33,0.74-0.74,0.74h-1.62
		c-0.41,0-0.74,0.33-0.74,0.74v16.89c0,0.41,0.33,0.74,0.74,0.74h1.62c0.41,0,0.74,0.33,0.74,0.74v1.21c0,0.41-0.33,0.74-0.74,0.74
		h-7.14c-0.41,0-0.74-0.33-0.74-0.74v-1.21c0-0.41,0.33-0.74,0.74-0.74h1.09c0.41,0,0.74-0.33,0.74-0.74V95.76
		c0.02-0.18,0.04-0.36,0.05-0.54c0.01-0.18,0.03-0.36,0.05-0.54c-0.19,0.25-0.38,0.51-0.57,0.78c-0.19,0.27-0.38,0.53-0.57,0.78
		c-1.43,1.92-2.92,3.8-4.47,5.64c-1.36,1.61-2.7,3.23-4.01,4.86c-0.29,0.37-0.85,0.37-1.14,0l-8.95-11.14l-0.64-0.91
		c0.02,0.18,0.04,0.36,0.05,0.54c0.01,0.18,0.03,0.36,0.05,0.54v12.51c0,0.41,0.33,0.74,0.74,0.74h1.09c0.41,0,0.74,0.33,0.74,0.74
		v1.21c0,0.41-0.33,0.74-0.74,0.74h-7.14c-0.41,0-0.74-0.33-0.74-0.74v-1.21c0-0.41,0.33-0.74,0.74-0.74h1.62
		c0.41,0,0.74-0.33,0.74-0.74V91.38c0-0.41-0.33-0.74-0.74-0.74h-1.62c-0.41,0-0.74-0.33-0.74-0.74V88.7c0-0.41,0.33-0.74,0.74-0.74
		h2.9c0.22,0,0.43,0.1,0.57,0.27c1.96,2.42,3.91,4.83,5.83,7.23c1.81,2.26,3.64,4.53,5.48,6.8c0.29,0.36,0.85,0.36,1.15,0
		c1.85-2.27,3.68-4.54,5.5-6.8c1.93-2.4,3.88-4.82,5.85-7.23C143.82,88.07,144.03,87.97,144.26,87.97z"/>
	<path class="st0" d="M154.08,109.81h0.86c0.3,0,0.55-0.25,0.55-0.55V97.51c0-0.3-0.25-0.55-0.55-0.55h-0.86
		c-0.3,0-0.55-0.25-0.55-0.55v-0.77c0-0.3,0.25-0.55,0.55-0.55H159c0.3,0,0.55,0.25,0.55,0.55v0.77c0,0.3-0.25,0.55-0.55,0.55h-0.89
		c-0.3,0-0.55,0.25-0.55,0.55v11.75c0,0.3,0.25,0.55,0.55,0.55H159c0.3,0,0.55,0.25,0.55,0.55v0.77c0,0.3-0.25,0.55-0.55,0.55h-4.92
		c-0.3,0-0.55-0.25-0.55-0.55v-0.77C153.53,110.05,153.77,109.81,154.08,109.81z"/>
	<path class="st0" d="M163.78,109.81h1.39V96.96h-1.39v-1.6c0-0.15,0.12-0.27,0.27-0.27h4.98c0.15,0,0.27,0.12,0.27,0.27v1.33
		c0,0.15-0.12,0.27-0.27,0.27h-1.52c-0.15,0-0.27,0.12-0.27,0.27v12.31c0,0.15,0.12,0.27,0.27,0.27h6.5c0.15,0,0.27-0.12,0.27-0.27
		v-1.23c0-0.15,0.12-0.27,0.27-0.27h1.42c0.15,0,0.27,0.12,0.27,0.27v3.11c0,0.15-0.12,0.27-0.27,0.27h-11.93
		c-0.15,0-0.27-0.12-0.27-0.27V109.81z"/>
	<path class="st0" d="M180.49,109.81h1.39V96.96h-1.39v-1.62c0-0.14,0.11-0.25,0.25-0.25h5.02c0.14,0,0.25,0.11,0.25,0.25v1.37
		c0,0.14-0.11,0.25-0.25,0.25h-1.56c-0.14,0-0.25,0.11-0.25,0.25v12.35c0,0.14,0.11,0.25,0.25,0.25h6.54c0.14,0,0.25-0.11,0.25-0.25
		v-1.28c0-0.14,0.11-0.25,0.25-0.25h1.46c0.14,0,0.25,0.11,0.25,0.25v3.15c0,0.14-0.11,0.25-0.25,0.25h-11.97
		c-0.14,0-0.25-0.11-0.25-0.25V109.81z"/>
</g>
</svg>
